<svg xmlns="http://www.w3.org/2000/svg" width="1024" height="1024" viewBox="0 0 512 512" role="img" aria-labelledby="title desc">
  <title id="title">iL Logo Inner Text Smaller</title>
  <desc id="desc">Fixed-size dark rounded-square iL logo with only the inner white monogram reduced in size.</desc>
  <rect x="0" y="0" width="512" height="512" rx="108" fill="#0B0F17"/>
  <g transform="translate(256 263.12) scale(1.26) translate(-256 -256)">
    <path d="M197.843 304.180 L194.151 309.490 C187.224 319.818 181.127 325.417 177.145 325.417 C175.029 325.417 173.163 323.551 173.163 321.436 C173.163 319.030 174.490 312.144 175.568 307.623 L199.709 218.941 C184.320 222.384 167.314 224.790 146.077 226.366 L146.077 233.542 C157.774 233.542 161.756 235.408 161.756 241.257 C161.756 243.372 160.968 247.354 159.889 251.876 L144.501 308.950 C142.385 316.624 141.058 323.551 141.058 327.243 C141.058 337.363 148.483 344.000 159.350 344.000 C175.278 344.000 185.109 336.036 203.691 307.872 L197.843 304.180 Z M192.036 160.000 C182.744 160.000 174.490 168.254 174.490 177.255 C174.490 187.625 182.205 195.589 192.036 195.589 C202.115 195.589 210.328 187.874 210.328 178.085 C210.328 168.254 202.115 160.000 192.036 160.000 Z M370.942 290.078 L364.554 288.750 C355.553 303.641 349.705 310.278 339.335 317.702 C325.025 327.782 306.152 333.091 284.417 333.091 C272.471 333.091 267.411 330.727 267.411 325.127 C267.411 323.012 267.950 319.569 268.738 316.624 L303.000 189.740 C307.230 175.140 312.291 171.697 329.795 170.619 L329.795 163.982 L245.634 163.982 L245.634 170.619 L254.138 171.946 C257.871 172.485 260.525 173.273 262.350 174.352 C263.968 175.430 265.005 177.794 265.005 180.449 C265.005 183.643 263.678 191.856 262.350 196.667 L229.707 315.836 C225.476 329.648 221.494 333.381 208.469 334.958 L208.469 341.594 L355.263 341.594 L370.942 290.078 Z" fill="#FFFFFF" fill-rule="nonzero"/>
  </g>
</svg>
